<svg width="76" height="18" viewBox="0 0 76 18" fill="none" xmlns="http://www.w3.org/2000/svg">
<path d="M34.6486 14.0123H26.8333V0.254883H22.4312V18H34.6486V14.0123Z" fill="white"/>
<path d="M46.1227 0.254883H41.2263L37.7894 6.9093L34.4232 0.254883H29.4326L35.6002 11.2957V18H39.9551V11.3705L46.1227 0.254883Z" fill="white"/>
<path d="M60.1289 0.254883H54.7147L49.1121 7.03392V0.254883H44.8278V18H49.1592V12.517L50.9482 10.548L55.4679 18H60.9057L53.9143 7.20838L60.1289 0.254883Z" fill="white"/>
<path d="M75.2232 0.254883H69.8089L64.2063 7.03392V0.254883H59.922V18H64.2534V12.517L66.0425 10.548L70.5622 18H76L69.0086 7.20838L75.2232 0.254883Z" fill="white"/>
<path d="M17.0013 8.99994C17.0013 13.9705 13.1954 17.9999 8.50064 17.9999C3.80587 17.9999 0 13.9705 0 8.99994C0 4.02941 3.80587 0 8.50064 0C13.1954 0 17.0013 4.02941 17.0013 8.99994Z" fill="white"/>
</svg>
