<?xml version="1.0" encoding="UTF-8"?>
<!DOCTYPE svg PUBLIC "-//W3C//DTD SVG 1.1//EN" "http://www.w3.org/Graphics/SVG/1.1/DTD/svg11.dtd">
<!-- Creator: CorelDRAW X7 -->
<svg xmlns="http://www.w3.org/2000/svg" xml:space="preserve" width="473px" height="294px" version="1.1" style="shape-rendering:geometricPrecision; text-rendering:geometricPrecision; image-rendering:optimizeQuality; fill-rule:evenodd; clip-rule:evenodd"
viewBox="0 0 58862043 36602537"
 xmlns:xlink="http://www.w3.org/1999/xlink">
 <defs>
  <style type="text/css">
   <![CDATA[
    .fil0 {fill:#FEFEFE;fill-rule:nonzero}
   ]]>
  </style>
 </defs>
 <g id="РЎР_x00bb_РѕР_x2116__x0020_1">
  <metadata id="CorelCorpID_0Corel-Layer"/>
  <path class="fil0" d="M3657170 24123632l4662883 0 0 2955607 -8320053 0 0 -17203031 3657170 0 0 14247424zm12459372 -8425501l3027276 -5762003c30254,-57570 90174,-93404 155087,-92670l3035207 34072c128945,1469 211042,138198 151856,252604l-4956462 9571909c-13071,25113 -19680,52870 -19386,81068l62857 7182456c735,95902 -76368,174179 -172269,174620l-2938425 14392c-96195,588 -174179,-77396 -173885,-173591l23498 -7100654c147,-28198 -6756,-56102 -19827,-81068l-5092016 -9701736c-60066,-114259 21736,-251722 150828,-253485l3132871 -43324c64032,-881 123511,33925 154205,90174l3173405 5809733c66235,121308 240854,119839 305180,-2497zm42745501 2588892c0,218678 -5287,436034 -12777,652803l-7427864 0c3671,-197383 5581,-395207 5581,-594058 0,-1434847 -95167,-2831803 -275221,-4173685l3138305 -4316729 -3917998 0 -103097 130414c-411215,-1395781 -922150,-2691255 -1516649,-3858518l5515274 0c2858972,3241255 4594446,7497623 4594446,12159773zm-29960 1041402c-252457,4521602 -2137877,8607022 -5076302,11676301l0 -73725 -5195260 0c762363,-1419572 1397543,-3042256 1874699,-4814886l681883 983978 4047236 0 -3903458 -5500000c76662,-742977 127624,-1501228 151122,-2271668l7420080 0zm-5385007 11991174c-2772323,2760868 -6420828,4641736 -10491856,5191883 2044179,-803632 3866889,-2577290 5292777,-5021669l97958 -170214 5101121 0zm-15463151 5191883c-4071028,-550147 -7719386,-2431455 -10491856,-5191883l5101122 0 97957 170214c1425888,2444379 3248598,4218037 5292777,5021669zm-10813044 -5519533c-3155634,-3301762 -5093778,-7777103 -5093778,-12704926 0,-4662003 1735621,-8918225 4594446,-12159773l5515273 0c-575994,1130841 -1073564,2381962 -1477877,3728104l-3423952 0 0 9084472 -5171028 0 0 388599 5171028 0 0 7771668 3464046 0 0 -131735c441909,1442483 991175,2773938 1629586,3962643l-5207744 0 0 60948zm-146569 -25253297c2935635,-3144326 6960548,-5257384 11473926,-5738652 -2252871,693338 -4262684,2553939 -5807090,5201575 -102363,175501 -202670,354673 -300921,537077l-5365915 0zm15416596 -5738652c4513525,480975 8538144,2594766 11473925,5738652l-5365914 0c-98251,-182404 -198559,-361576 -300922,-537077 -1544406,-2647636 -3554219,-4508237 -5807089,-5201575zm-9620668 30931001l7143245 0 0 -3830908 -3871149 0 -5019466 -7242670 -323831 -507263 0 6163378c500507,2017891 1205741,3849413 2071201,5417463zm7143245 -4078811l0 -7523765 -5339627 0 5339627 7523765zm388598 4078811l7766822 0c839172,-1520614 1528104,-3288985 2025234,-5234766l-4046502 -5838812 -323685 -507263 -147 7749933 -3463898 0 0 -7771668 -1957824 0 0 11602576zm10564699 -9815701c51843,-587009 87677,-1182977 106329,-1786875l-1374486 0 1268157 1786875zm-3018464 10204299l-7546235 0 0 5281616c39065,734 78277,1322 117490,1322 2890841,0 5517183,-2018478 7428745,-5282938zm-7934833 0l-6922657 0c1799359,3072951 4231989,5041496 6922657,5261936l0 -5261936zm-5615434 -12379773l5615434 0 0 -12812576 -7340481 0c-789533,1510480 -1434700,3248010 -1898491,5148851l24526 4393539 4598117 -5814286 3918144 0 -5750694 7910013 833445 1174459zm6004032 0l1957824 0 0 -9084472 3431588 0 32457 5814286 4199533 -5310254c-436916,-1544847 -996609,-2967944 -1657343,-4232136l-7964059 0 0 12812576zm9020881 0l1659693 0c3525,-197383 5728,-395207 5728,-594058 0,-1273298 -75782,-2515902 -219707,-3715621l-2279306 3135220 833592 1174459zm-16540975 -13201174l7131496 0 0 -5628799c-2697717,221028 -5136075,2199266 -6936903,5286168 -65794,112644 -130561,227050 -194593,342631zm7520094 0l7755073 0c-64032,-115581 -128798,-229987 -194593,-342631 -1912737,-3278851 -4544953,-5307169 -7442990,-5307169 -39213,0 -78425,587 -117490,1322l0 5648478z"/>
 </g>
</svg>
